<svg width="100" height="100" viewBox="0 0 100 100" fill="none" xmlns="http://www.w3.org/2000/svg">
<path d="M95.84 50C95.84 75.3167 75.3167 95.84 50 95.84C24.6833 95.84 4.16 75.3167 4.16 50C4.16 24.6833 24.6833 4.16 50 4.16C75.3167 4.16 95.84 24.6833 95.84 50Z" stroke="#606C38" stroke-width="8.32"/>
<path d="M31.0358 39.3958C40.5639 46.1757 45.6622 66.2161 47.0204 75.3888C47.1338 76.3594 50.5881 76.16 50.7815 74.8902C52.871 61.1711 56.04 54.2849 57.3634 52.5567C57.5812 52.2312 57.7813 52.2243 57.9902 52.2576C62.8378 52.6564 66.1392 48.8344 67.1839 46.8736C68.342 44.4543 68.5858 41.1974 68.9689 38.4722C69.0734 38.0733 68.9192 38 68.4376 38C63.3393 38.3988 59.3484 39.6285 57.9902 40.1935C53.3098 42.1078 52.5664 47.3457 52.9754 49.765C53.0888 50.6359 53.5675 50.1306 53.7068 49.765C55.8798 45.3781 58.8608 43.7496 60.0797 43.4837C60.6577 43.3576 60.7373 43.557 60.3931 43.7828C55.044 47.2924 50.7118 60.6659 49.2144 66.914C48.9817 67.8846 48.2817 67.6852 48.1696 66.914C46.5816 55.9865 42.2146 48.07 40.2296 45.4778C36.6775 41.4896 35.0059 40.0938 31.6627 38.6979C28.9882 37.5812 30.1304 38.6979 31.0358 39.3958Z" fill="#283618"/>
<path d="M22.5137 48.3419V79H77.2628V48.3419H75.5544V77.3864H24.0669V48.3419H22.5137Z" fill="#BC6C25"/>
<path d="M17 51.1849L18.1649 52.1837L49.3059 12.9198L81.0681 52.1837L82 51.1849L49.3059 10L17 51.1849Z" fill="#BC6C25"/>
</svg>
